<svg width="20" height="12" viewBox="0 0 20 12" fill="none" xmlns="http://www.w3.org/2000/svg">
<path d="M19.4582 4.67104L15.8364 0.953979C15.3393 0.472137 14.5581 0.472137 14.061 0.885144C13.5639 1.36699 13.5639 2.12417 13.99 2.60601L16.0494 4.73988H1.27827C0.568121 4.73988 0 5.29055 0 5.9789C0 6.66725 0.568121 7.21792 1.27827 7.21792H16.1204L14.061 9.35179C13.5639 9.83363 13.6349 10.5908 14.132 11.0727C14.3451 11.2792 14.7001 11.4168 14.9842 11.4168C15.3393 11.4168 15.6233 11.2792 15.9074 11.0727L19.5292 7.35559C20.1683 6.52958 20.1683 5.42822 19.4582 4.67104Z" fill="#45525B"/>
</svg>
